<svg xmlns="http://www.w3.org/2000/svg" width="68.352" height="68.352" viewBox="0 0 68.352 68.352"><g transform="translate(-181.007 -1510.163)"><g transform="translate(181.007 1510.163)"><path d="M7,51H9.2v2.2H7Z" transform="translate(-0.385 4.122)"/><path d="M55,51h2.2v2.2H55Z" transform="translate(4.532 4.122)"/><path d="M44.151,43H22.1A1.1,1.1,0,0,0,21,44.1v4.41a1.1,1.1,0,0,0,1.1,1.1H44.151a1.1,1.1,0,0,0,1.1-1.1V44.1A1.1,1.1,0,0,0,44.151,43Zm-1.1,4.41H23.2V45.2H43.049Z" transform="translate(1.049 3.303)"/><path d="M69.352,37.537v-4.41a1.1,1.1,0,0,0-1.1-1.1H61.634a1.1,1.1,0,0,0-.987.61l-.77,1.538-5.3-9.284A7.733,7.733,0,0,0,47.874,21h-25.4a7.738,7.738,0,0,0-6.7,3.888l-5.3,9.284L9.7,32.634a1.1,1.1,0,0,0-.986-.61H2.1a1.1,1.1,0,0,0-1.1,1.1v4.41a1.1,1.1,0,0,0,1.1,1.1H6.84L1.385,43.315A1.1,1.1,0,0,0,1,44.151v8.82a7.69,7.69,0,0,0,2.2,5.391V64A3.311,3.311,0,0,0,6.512,67.3h8.82A3.311,3.311,0,0,0,18.639,64V60.688H51.712V64A3.311,3.311,0,0,0,55.02,67.3h8.82A3.311,3.311,0,0,0,67.147,64V58.362a7.69,7.69,0,0,0,2.2-5.391v-8.82a1.1,1.1,0,0,0-.385-.837l-5.455-4.675h4.737A1.1,1.1,0,0,0,69.352,37.537ZM17.692,25.982A5.523,5.523,0,0,1,22.478,23.2h25.4a5.523,5.523,0,0,1,4.786,2.777l5.973,10.452H56.746l-5.01-8.349a5.538,5.538,0,0,0-4.726-2.676H23.341a5.539,5.539,0,0,0-4.726,2.676l-5.01,8.349H11.719ZM54.175,36.434h-38L20.5,29.221a3.324,3.324,0,0,1,2.837-1.606H47.012a3.322,3.322,0,0,1,2.835,1.606ZM3.2,34.229H8.036l1.1,2.2H3.2Zm8.526,11.024,5.915,3.379L16.1,49.664H3.2v-4.41ZM16.434,64a1.1,1.1,0,0,1-1.1,1.1H6.512A1.1,1.1,0,0,1,5.41,64V59.933a7.648,7.648,0,0,0,3.307.755h7.717ZM22.4,58.483l2.2-2.2H45.744l2.2,2.2ZM63.839,65.1H55.02a1.1,1.1,0,0,1-1.1-1.1V60.688h7.717a7.648,7.648,0,0,0,3.307-.755V64A1.1,1.1,0,0,1,63.839,65.1Zm3.307-15.434h-12.9l-1.546-1.031,5.915-3.379h8.526Zm-1.877-6.615H58.327a1.094,1.094,0,0,0-.547.146L50.063,47.6A1.1,1.1,0,0,0,50,49.478l3.307,2.2a1.1,1.1,0,0,0,.611.185H67.147v1.1a5.518,5.518,0,0,1-5.512,5.512H51.066L46.98,54.4a1.1,1.1,0,0,0-.779-.323H24.151a1.1,1.1,0,0,0-.779.323l-4.087,4.087H8.717A5.518,5.518,0,0,1,3.2,52.971v-1.1H16.434a1.109,1.109,0,0,0,.612-.185l3.307-2.2a1.1,1.1,0,0,0-.064-1.874l-7.717-4.41a1.1,1.1,0,0,0-.548-.146H5.082l5.145-4.41h49.9Zm1.877-6.615H61.213l1.1-2.2h4.831Z" transform="translate(-1 1.049)"/><path d="M32.512,18.639a5.518,5.518,0,0,0,5.512-5.512,6.38,6.38,0,0,0-1.882-4.543,8.574,8.574,0,0,1-2.528-6.1V2.1a1.1,1.1,0,0,0-2.2,0v.378a8.574,8.574,0,0,1-2.528,6.1A6.38,6.38,0,0,0,27,13.127,5.518,5.518,0,0,0,32.512,18.639Zm-2.071-8.5a10.854,10.854,0,0,0,2.071-2.887,10.854,10.854,0,0,0,2.071,2.887,4.194,4.194,0,0,1,1.236,2.984,3.307,3.307,0,0,1-6.615,0A4.194,4.194,0,0,1,30.441,10.143Z" transform="translate(1.664 -1)"/><path d="M16.512,20.639a5.518,5.518,0,0,0,5.512-5.512,6.38,6.38,0,0,0-1.882-4.543,8.574,8.574,0,0,1-2.528-6.1V4.1a1.1,1.1,0,0,0-2.2,0v.378a8.574,8.574,0,0,1-2.528,6.1A6.38,6.38,0,0,0,11,15.127,5.518,5.518,0,0,0,16.512,20.639Zm-2.071-8.5a10.854,10.854,0,0,0,2.071-2.887,10.854,10.854,0,0,0,2.071,2.887,4.194,4.194,0,0,1,1.236,2.984,3.307,3.307,0,1,1-6.615,0A4.194,4.194,0,0,1,14.441,12.143Z" transform="translate(0.024 -0.795)"/><path d="M48.512,20.639a5.518,5.518,0,0,0,5.512-5.512,6.38,6.38,0,0,0-1.882-4.543,8.574,8.574,0,0,1-2.528-6.1V4.1a1.1,1.1,0,0,0-2.2,0v.378a8.574,8.574,0,0,1-2.528,6.1A6.38,6.38,0,0,0,43,15.127,5.518,5.518,0,0,0,48.512,20.639Zm-2.071-8.5a10.854,10.854,0,0,0,2.071-2.887,10.854,10.854,0,0,0,2.071,2.887,4.194,4.194,0,0,1,1.236,2.984,3.307,3.307,0,0,1-6.615,0A4.194,4.194,0,0,1,46.441,12.143Z" transform="translate(3.303 -0.795)"/></g></g></svg>