<svg xmlns="http://www.w3.org/2000/svg" width="77.348" height="67.033" viewBox="0 0 77.348 67.033"><g transform="translate(0)"><g transform="translate(12.968 54.51)"><path d="M84.466,370.294h0a3.656,3.656,0,0,0-2.707.9,3.726,3.726,0,0,0,2.177,6.531c.09.006.18.009.271.009a3.726,3.726,0,0,0,.258-7.441Zm.886,3.793-.005,0a1.139,1.139,0,0,1-.387.785,1.179,1.179,0,0,1-.833.277,1.147,1.147,0,0,1,.079-2.292h.083A1.148,1.148,0,0,1,85.352,374.086Z" transform="translate(-80.476 -370.281)"/></g><g transform="translate(59.377 54.51)"><path d="M372.466,370.293h0a3.652,3.652,0,0,0-2.707.9,3.726,3.726,0,0,0,2.177,6.531c.09.006.18.009.271.009a3.726,3.726,0,0,0,.258-7.441Zm.886,3.793-.005,0a1.139,1.139,0,0,1-.387.785,1.183,1.183,0,0,1-.833.277,1.147,1.147,0,0,1,.079-2.292h.082A1.148,1.148,0,0,1,373.352,374.086Z" transform="translate(-368.476 -370.28)"/></g><g transform="translate(33.517 46.409)"><path d="M214.446,320.008h-5.157a1.289,1.289,0,1,0,0,2.578h5.157a1.289,1.289,0,0,0,0-2.578Z" transform="translate(-208 -320.008)"/></g><g transform="translate(0 0)"><path d="M70.9,73.26h-.669l-7.606-9.5a8.98,8.98,0,0,0-7.045-3.387H46.409V57.791h6.446a16.759,16.759,0,0,0,15-9.326,1.279,1.279,0,0,0,.464-.846.946.946,0,0,0-.01-.1,16.664,16.664,0,0,0,1.307-6.483V33.3a1.294,1.294,0,0,0-1.289-1.289H60.589A16.658,16.658,0,0,0,54.151,33.3a1.26,1.26,0,0,0-.516.1,1.275,1.275,0,0,0-.467.361,16.8,16.8,0,0,0-8.8,10.866A16.772,16.772,0,0,0,29.65,35.875H24.473a1.243,1.243,0,0,0-.312.063,1.336,1.336,0,0,0-.179.041,1.285,1.285,0,0,0-.146.1,1.267,1.267,0,0,0-.267.191l-.015.01a1.251,1.251,0,0,0-.094.152,1.176,1.176,0,0,0-.16.258,1.252,1.252,0,0,0-.059.293,1.2,1.2,0,0,0-.036.183v3.867a16.7,16.7,0,0,0,5.337,12.23,1.266,1.266,0,0,0,.594.539,16.674,16.674,0,0,0,10.827,3.99h3.867v2.578H31.805a9.036,9.036,0,0,0-6.7,2.987l-9,10L5.386,75.139A6.425,6.425,0,0,0,0,81.5v8.522a1.289,1.289,0,0,0,1.289,1.289H7.838a9.012,9.012,0,0,0,17.842,0H54.247a9.012,9.012,0,0,0,17.842,0h3.971a1.289,1.289,0,0,0,1.289-1.289V79.706A6.453,6.453,0,0,0,70.9,73.26ZM52.854,55.212H48.232l7.674-7.674,8.959,1A14.167,14.167,0,0,1,52.854,55.212ZM67.035,41.032a14.067,14.067,0,0,1-.944,5.043L58.241,45.2l8.794-8.794Zm-6.446-6.446h4.623l-6.767,6.767L55.9,35.4A14.084,14.084,0,0,1,60.589,34.586Zm-7.039,1.887,2.932,6.841L52,47.8l-3.048-7.112A14.273,14.273,0,0,1,53.551,36.474ZM46.409,48.767A14.079,14.079,0,0,1,47.4,43.6l2.639,6.16L46.409,53.39Zm-29.65,47.7A6.446,6.446,0,1,1,23.2,90.019,6.446,6.446,0,0,1,16.759,96.465ZM43.831,88.73H25.691c-.014-.1-.039-.195-.057-.293-.022-.129-.043-.245-.07-.366-.036-.164-.08-.324-.129-.485-.031-.113-.061-.228-.1-.339-.054-.168-.117-.33-.18-.492-.04-.1-.075-.2-.116-.3-.08-.184-.17-.364-.258-.541-.036-.071-.067-.144-.106-.214q-.2-.365-.432-.71c-.035-.052-.075-.1-.11-.15-.129-.177-.258-.351-.387-.516-.063-.077-.129-.15-.2-.226-.117-.129-.233-.267-.357-.387-.079-.08-.161-.155-.244-.231-.12-.113-.24-.227-.366-.334-.089-.076-.182-.147-.275-.219-.129-.1-.258-.2-.387-.289-.1-.068-.2-.129-.3-.2-.129-.086-.269-.17-.409-.249-.1-.061-.21-.117-.317-.174-.143-.073-.287-.143-.434-.209-.11-.05-.219-.1-.33-.144-.152-.062-.308-.116-.464-.17-.112-.039-.223-.079-.338-.112-.165-.049-.333-.089-.5-.129-.111-.026-.219-.055-.331-.077-.188-.037-.387-.063-.574-.088-.1-.013-.19-.031-.286-.04A6.945,6.945,0,0,0,16.759,81c-.3,0-.593.017-.883.045-.1.009-.191.027-.286.04-.193.024-.387.05-.574.088-.112.022-.22.052-.331.077-.168.04-.335.08-.5.129-.115.034-.226.073-.338.112-.156.054-.312.108-.464.17-.111.045-.22.094-.33.144-.147.066-.291.129-.434.209-.107.057-.213.113-.317.174-.139.079-.275.162-.409.249-.1.064-.2.129-.3.2-.129.093-.258.189-.387.289-.093.072-.186.143-.275.219-.129.107-.246.22-.366.334-.083.076-.165.151-.244.231-.129.129-.24.258-.357.387l-.2.226c-.137.168-.264.342-.387.516-.035.052-.075.1-.11.15q-.232.344-.432.71c-.039.07-.07.143-.106.214-.092.178-.182.357-.258.541-.041.1-.076.2-.116.3-.063.162-.129.325-.18.492-.036.111-.066.226-.1.339-.045.161-.089.321-.129.485-.027.121-.048.242-.07.366-.018.1-.043.193-.057.293H2.578V81.5A3.855,3.855,0,0,1,5.81,77.682l11.056-1.843H43.831Zm0-15.47H19.654l7.361-8.18a6.456,6.456,0,0,1,4.79-2.134H43.831ZM29.65,38.454A14.138,14.138,0,0,1,33.517,39v4.855l-5.764-5.4Zm-3.867,2.578V40.14l9.777,9.166-5.523,1.84A14.134,14.134,0,0,1,25.783,41.032ZM39.963,55.212a14.072,14.072,0,0,1-7.489-2.162L37.7,51.31l4.163,3.9Zm3.867-1.686-7.749-7.266c0-.026.014-.046.014-.072v-6.17a14.181,14.181,0,0,1,7.735,12.616Zm2.578,9.421h9.174a6.415,6.415,0,0,1,5.034,2.42l6.314,7.893H46.409ZM63.168,96.465a6.446,6.446,0,1,1,6.446-6.446A6.446,6.446,0,0,1,63.168,96.465Zm11.6-7.735H72.1c-.014-.1-.039-.195-.057-.293-.022-.129-.043-.245-.07-.366-.036-.164-.08-.324-.129-.485-.031-.113-.061-.228-.1-.339-.054-.168-.117-.33-.18-.492-.04-.1-.075-.2-.116-.3-.08-.184-.17-.364-.258-.541-.036-.071-.067-.144-.106-.214q-.2-.365-.432-.71c-.035-.052-.075-.1-.11-.15-.129-.177-.258-.351-.387-.516-.063-.077-.129-.15-.2-.226-.117-.129-.233-.267-.357-.387-.079-.08-.161-.155-.244-.231-.12-.113-.24-.227-.366-.334-.089-.076-.182-.147-.275-.219-.129-.1-.258-.2-.387-.289-.1-.068-.2-.129-.3-.2-.129-.086-.269-.17-.409-.249-.1-.061-.21-.117-.317-.174-.143-.073-.287-.143-.434-.209-.11-.05-.219-.1-.33-.144-.152-.062-.308-.116-.464-.17-.112-.039-.223-.079-.338-.112-.165-.049-.333-.089-.5-.129-.111-.026-.219-.055-.331-.077-.188-.037-.38-.063-.574-.088-.1-.013-.189-.031-.286-.04A6.945,6.945,0,0,0,63.168,81c-.3,0-.593.017-.883.045-.1.009-.191.027-.286.04-.193.024-.387.05-.574.088-.112.022-.22.052-.331.077-.168.04-.335.08-.5.129-.115.034-.226.073-.338.112-.156.054-.312.108-.464.17-.111.045-.22.094-.33.144-.147.066-.291.129-.434.209-.107.057-.213.113-.317.174-.139.079-.275.162-.409.249-.1.064-.2.129-.3.2-.129.093-.258.189-.387.289-.093.072-.186.143-.275.219-.129.107-.246.22-.366.334-.083.076-.165.151-.244.231-.129.129-.24.258-.357.387l-.2.226c-.137.168-.264.342-.387.516-.035.052-.075.1-.11.15q-.232.344-.432.71c-.039.07-.07.143-.106.214-.092.178-.182.357-.258.541-.041.1-.076.2-.116.3-.063.162-.129.325-.18.492-.036.111-.066.226-.1.339-.045.161-.089.321-.129.485-.027.121-.048.242-.07.366-.018.1-.043.193-.057.293H46.409V75.839H70.9a3.867,3.867,0,0,1,3.867,3.867Z" transform="translate(0 -32.008)"/></g></g></svg>