<svg xmlns="http://www.w3.org/2000/svg" width="66.829" height="66.829" viewBox="0 0 66.829 66.829"><g transform="translate(0 0)"><g transform="translate(0 0)"><path d="M36.9,29.046l8.7,6.194a1.114,1.114,0,0,0,1.292,0l8.7-6.194a6.883,6.883,0,0,0,2.9-5.585V10.283a1.114,1.114,0,0,0-.668-1.022L46.7,4.448a1.114,1.114,0,0,0-.882,0L34.676,9.26a1.114,1.114,0,0,0-.668,1.022V23.461A6.884,6.884,0,0,0,36.9,29.046Zm-.677-18.032L46.251,6.685l10.024,4.329V23.461a4.654,4.654,0,0,1-1.97,3.777l-8.054,5.727L38.2,27.232a4.65,4.65,0,0,1-1.97-3.77Z" transform="translate(3.871 0.496)"/><path d="M42.9,25.143a1.114,1.114,0,0,0,1.538-.195L53.35,13.81a1.114,1.114,0,1,0-1.74-1.392l-8.242,10.3L39.782,20.02A1.114,1.114,0,0,0,38.446,21.8Z" transform="translate(4.325 1.366)"/><path d="M2.228,59.033H3.341v4.455a3.341,3.341,0,0,0,3.341,3.341h6.683a3.341,3.341,0,0,0,3.341-3.341V59.033H43.439v4.455a3.341,3.341,0,0,0,3.341,3.341h6.683A3.341,3.341,0,0,0,56.8,63.488V59.033h1.114A2.228,2.228,0,0,0,60.146,56.8V40.1a5.51,5.51,0,0,0-1.926-4.2l3.832-2.727a11.348,11.348,0,0,0,4.777-9.215V7.85a1.114,1.114,0,0,0-.668-1.022L50.568.091a1.114,1.114,0,0,0-.882,0l-15.6,6.736a1.114,1.114,0,0,0-.668,1.022v4.4H16.563a5.569,5.569,0,0,0-5.251,3.718L4.752,34.611A5.561,5.561,0,0,0,0,40.1V56.8A2.228,2.228,0,0,0,2.228,59.033ZM14.48,63.488A1.114,1.114,0,0,1,13.366,64.6H6.683a1.114,1.114,0,0,1-1.114-1.114V59.033H14.48ZM10.024,56.8H7.8V54.577h2.228Zm44.553,6.683A1.114,1.114,0,0,1,53.464,64.6H46.781a1.114,1.114,0,0,1-1.114-1.114V59.033h8.911ZM52.35,56.8H50.122V54.577H52.35ZM35.642,8.582l14.48-6.255L64.6,8.582V23.953a9.114,9.114,0,0,1-3.842,7.4L50.122,38.93,39.484,31.356a9.114,9.114,0,0,1-3.842-7.4ZM52.35,41.211a1.114,1.114,0,0,1,1.114,1.114v2.228a1.114,1.114,0,0,1-1.114,1.114H45.667a1.114,1.114,0,0,1-1.114-1.114,3.341,3.341,0,0,1,3.341-3.341ZM33.415,18.935v2.228h-7.8V18.935Zm0-2.228H31.187V14.48h2.228Zm-20,0a3.342,3.342,0,0,1,3.149-2.228h12.4v2.228H25.618a2.228,2.228,0,0,0-2.228,2.228v2.228a2.228,2.228,0,0,0,2.228,2.228h7.8v.567a11.348,11.348,0,0,0,4.777,9.215L40.1,34.528H7.142ZM2.228,40.1a3.341,3.341,0,0,1,3.341-3.341H43.227l3.366,2.4a5.569,5.569,0,0,0-4.268,5.4,3.341,3.341,0,0,0,3.341,3.341H52.35a3.341,3.341,0,0,0,3.341-3.341V42.325a3.341,3.341,0,0,0-2.133-3.106l2.758-1.964a3.3,3.3,0,0,1,1.6,2.842V56.8H54.577V54.577A2.228,2.228,0,0,0,52.35,52.35H50.122a2.228,2.228,0,0,0-2.228,2.228V56.8H12.252V54.577a2.228,2.228,0,0,0-2.228-2.228H7.8a2.228,2.228,0,0,0-2.228,2.228V56.8H2.228Z" transform="translate(0 0)"/><path d="M18.951,15H17.045a3.349,3.349,0,0,0-3.152,2.228L9.711,29.11a1.114,1.114,0,1,0,2.1.74l4.181-11.878a1.114,1.114,0,0,1,1.05-.744h1.906a1.114,1.114,0,0,0,0-2.228Z" transform="translate(1.098 1.707)"/><path d="M7.341,43.911h6.683a3.341,3.341,0,0,0,3.341-3.341A5.576,5.576,0,0,0,11.8,35H7.341A3.341,3.341,0,0,0,4,38.341v2.228A3.341,3.341,0,0,0,7.341,43.911ZM6.228,38.341a1.114,1.114,0,0,1,1.114-1.114H11.8a3.341,3.341,0,0,1,3.341,3.341,1.114,1.114,0,0,1-1.114,1.114H7.341a1.114,1.114,0,0,1-1.114-1.114Z" transform="translate(0.455 3.984)"/><path d="M20.228,49.911H35.821a2.228,2.228,0,0,0,2.228-2.228V43.228A2.228,2.228,0,0,0,35.821,41H20.228A2.228,2.228,0,0,0,18,43.228v4.455A2.228,2.228,0,0,0,20.228,49.911Zm0-6.683H35.821v4.455H20.228Z" transform="translate(2.049 4.666)"/></g></g></svg>