<svg xmlns="http://www.w3.org/2000/svg" width="66.686" height="66.686" viewBox="0 0 66.686 66.686"><g transform="translate(0)"><path d="M64.459,21.436h3.227V19.285H65.18L60.119,6.994A9.651,9.651,0,0,0,51.168,1H33.647a9.649,9.649,0,0,0-8.128,4.421L16.45,19.436,1.781,23.629A1.075,1.075,0,0,0,1,24.663V38.645a1.075,1.075,0,0,0,1.076,1.076H7.517a9.676,9.676,0,0,0,19.233,0h3.432l.581.872a14.909,14.909,0,0,1,0,16.54l-.785,1.179a6.029,6.029,0,0,0,8.359,8.362l.731-.487a16.72,16.72,0,0,1,3.877-1.9v3.4H45.1v-4.3a1.077,1.077,0,0,0-.479-.895l-5.974-3.983V54.779a1.076,1.076,0,1,1,2.151,0v3.227h2.151V44.023a1.076,1.076,0,1,1,2.151,0v7.529H47.25v-9.68a1.076,1.076,0,1,1,2.151,0v9.68h2.151V44.023a1.076,1.076,0,1,1,2.151,0v7.529h2.151V48.325a1.076,1.076,0,1,1,2.151,0V59.711l-1.836,1.836a1.073,1.073,0,0,0-.315.76v5.378h2.151V66.468l.307.2a6.029,6.029,0,0,0,8.362-8.359l-.785-1.179a14.908,14.908,0,0,1,0-16.541l.785-1.179a6.029,6.029,0,0,0-8.359-8.362l-.731.487a16.686,16.686,0,0,1-18.512,0l-.731-.487a6,6,0,0,0-9.171,6.516H26.75a9.676,9.676,0,0,0-19.233,0H3.151V31.116H6.378a1.075,1.075,0,0,0,1.076-1.076v-5.8l9.975-2.85a1.071,1.071,0,0,0,.608-.45L27.325,6.59a7.5,7.5,0,0,1,6.322-3.439H51.168A7.5,7.5,0,0,1,58.13,7.814L63.465,20.77a1.074,1.074,0,0,0,.994.666ZM34.994,32.192a3.869,3.869,0,0,1,2.151.651l.731.487a18.837,18.837,0,0,0,20.9,0l.731-.487a3.878,3.878,0,0,1,5.378,5.377L64.1,39.4a17.059,17.059,0,0,0,0,18.928l.785,1.179a3.878,3.878,0,0,1-5.377,5.378l-.731-.487c-.251-.167-.512-.314-.769-.468V62.754l1.836-1.836a1.077,1.077,0,0,0,.315-.762V48.325A3.231,3.231,0,0,0,56.93,45.1a3.191,3.191,0,0,0-1.076.2V44.023a3.216,3.216,0,0,0-4.427-2.99,3.209,3.209,0,0,0-6.2,0,3.216,3.216,0,0,0-4.427,2.99V51.75a3.19,3.19,0,0,0-1.076-.2,3.231,3.231,0,0,0-3.227,3.227v4.3a1.077,1.077,0,0,0,.479.895l4.09,2.727A18.85,18.85,0,0,0,37.876,64.4l-.731.487a3.878,3.878,0,0,1-5.378-5.377l.785-1.179a17.059,17.059,0,0,0,0-18.928l-.785-1.179a3.878,3.878,0,0,1,3.226-6.029Zm-17.86-1.076A7.529,7.529,0,1,1,9.6,38.645,7.538,7.538,0,0,1,17.134,31.116ZM5.3,28.965H3.151V25.474L5.3,24.859Z" transform="translate(-1 -1)"/><path d="M16.378,41.756A5.378,5.378,0,1,0,11,36.378,5.384,5.384,0,0,0,16.378,41.756Zm0-8.6a3.227,3.227,0,1,1-3.227,3.227A3.231,3.231,0,0,1,16.378,33.151Z" transform="translate(-0.244 1.267)"/><path d="M58.456,20.667a1.071,1.071,0,0,0,.117-.995L54.257,8.447A5.412,5.412,0,0,0,49.237,5H33.084A5.346,5.346,0,0,0,28.5,7.56L21.159,19.494a1.076,1.076,0,0,0,.916,1.639H57.57A1.074,1.074,0,0,0,58.456,20.667ZM30.336,8.687a3.207,3.207,0,0,1,2.748-1.536h6.2V18.982H24Zm11.1,10.3V7.151h7.8a3.248,3.248,0,0,1,3.012,2.068L56,18.982Z" transform="translate(0.511 -0.698)"/><path d="M36,22h4.3v2.151H36Z" transform="translate(1.645 0.587)"/><path d="M52,22h4.3v2.151H52Z" transform="translate(2.854 0.587)"/><path d="M24.831,56.378a4.307,4.307,0,0,1-4.3-4.3,1.076,1.076,0,1,0-2.151,0,4.307,4.307,0,0,1-4.3,4.3,1.076,1.076,0,1,0,0,2.151,4.307,4.307,0,0,1,4.3,4.3,1.076,1.076,0,1,0,2.151,0,4.307,4.307,0,0,1,4.3-4.3,1.076,1.076,0,1,0,0-2.151Zm-5.378,2.89a6.52,6.52,0,0,0-1.814-1.814,6.52,6.52,0,0,0,1.814-1.814,6.52,6.52,0,0,0,1.814,1.814A6.506,6.506,0,0,0,19.453,59.268Z" transform="translate(-0.093 2.779)"/><path d="M12.831,49.378a4.307,4.307,0,0,1-4.3-4.3,1.076,1.076,0,0,0-2.151,0,4.307,4.307,0,0,1-4.3,4.3,1.076,1.076,0,0,0,0,2.151,4.307,4.307,0,0,1,4.3,4.3,1.076,1.076,0,0,0,2.151,0,4.307,4.307,0,0,1,4.3-4.3,1.076,1.076,0,0,0,0-2.151Zm-5.378,2.89a6.506,6.506,0,0,0-1.814-1.814,6.506,6.506,0,0,0,1.814-1.814,6.506,6.506,0,0,0,1.814,1.814A6.506,6.506,0,0,0,7.453,52.268Z" transform="translate(-1 2.25)"/><path d="M2.076,8.529a4.307,4.307,0,0,1,4.3,4.3,1.076,1.076,0,0,0,2.151,0,4.307,4.307,0,0,1,4.3-4.3,1.076,1.076,0,0,0,0-2.151,4.307,4.307,0,0,1-4.3-4.3,1.076,1.076,0,1,0-2.151,0,4.307,4.307,0,0,1-4.3,4.3,1.076,1.076,0,0,0,0,2.151Zm5.378-2.89A6.506,6.506,0,0,0,9.268,7.453,6.506,6.506,0,0,0,7.453,9.268,6.506,6.506,0,0,0,5.639,7.453,6.506,6.506,0,0,0,7.453,5.639Z" transform="translate(-1 -1)"/></g></svg>