<svg xmlns="http://www.w3.org/2000/svg" width="68.239" height="66.829" viewBox="0 0 68.239 66.829"><g transform="translate(0)"><path d="M56.852,344h-.888a4.089,4.089,0,1,0,0,8.177h.888a4.089,4.089,0,1,0,0-8.177Zm0,5.922h-.888a1.833,1.833,0,0,1,0-3.666h.888a1.833,1.833,0,0,1,0,3.666Z" transform="translate(-46.535 -298.178)"/><path d="M296.7,344h-.888a4.089,4.089,0,1,0,0,8.177h.888a4.089,4.089,0,0,0,0-8.177Zm0,5.922h-.888a1.833,1.833,0,1,1,0-3.666h.888a1.833,1.833,0,0,1,0,3.666Z" transform="translate(-252.564 -298.178)"/><path d="M157.906,345.128A1.128,1.128,0,0,0,156.778,344h-15.65A1.128,1.128,0,0,0,140,345.128v5.781a1.128,1.128,0,0,0,1.128,1.128h15.65a1.128,1.128,0,0,0,1.128-1.128Zm-2.256,4.653H142.256v-3.525H155.65Z" transform="translate(-122.235 -298.178)"/><path d="M81.111,23.089a1.128,1.128,0,1,0,0-2.256h-3.1v-.652A1.13,1.13,0,0,0,76.934,19h-5.5a4.834,4.834,0,0,0-4.746,4.23H28.468a8.107,8.107,0,0,0,0,16.214H71.822a5.868,5.868,0,0,1,5.905,5.868v17.2a5.959,5.959,0,0,1-5.9,5.975H67.576V64.5a6.612,6.612,0,0,0-2.049-4.751l-1.171-1.243-4.1-11.045a4.764,4.764,0,0,0-4.464-3.085H26.5a4.758,4.758,0,0,0-4.459,3.085L17.99,58.378l-1.683,1.552A6.557,6.557,0,0,0,14,64.918v19.73a1.19,1.19,0,0,0,1.146,1.181H25.424a1.172,1.172,0,0,0,1.124-1.181V78.639h28.48v6.009a1.159,1.159,0,0,0,1.109,1.181H66.415a1.2,1.2,0,0,0,1.161-1.181v-13.9h4.247a8.218,8.218,0,0,0,8.16-8.231v-17.2a8.126,8.126,0,0,0-8.16-8.124H28.469a5.851,5.851,0,0,1,0-11.7H66.691a4.833,4.833,0,0,0,4.746,4.089h5.5a1.1,1.1,0,0,0,1.074-1.147v-.686h3.1a1.128,1.128,0,1,0,0-2.256h-3.1v-2.4ZM24.153,48.261A2.506,2.506,0,0,1,26.5,46.634H55.789a2.506,2.506,0,0,1,2.344,1.627l3.578,9.652H20.575Zm.139,35.312H16.256V78.639h8.036Zm32.992,0V78.639H65.32v4.935Zm8.036-7.19H16.256V64.918a4.314,4.314,0,0,1,1.532-3.289c.013-.011.03-.008.042-.02l1.568-1.44H62.786l1.1,1.162c.016.017.049.027.065.042A4.331,4.331,0,0,1,65.32,64.5V76.383Zm3.525-51.621v-.915a2.633,2.633,0,0,1,2.591-2.591h1.5v6.063h-1.5a2.6,2.6,0,0,1-2.591-2.556Zm6.908,2.556h-.564V21.256h.564Z" transform="translate(-14 -19)"/></g></svg>